<?xml version="1.0" encoding="utf-8"?>
<!-- Generator: Adobe Illustrator 27.3.1, SVG Export Plug-In . SVG Version: 6.00 Build 0)  -->
<svg version="1.1" id="Layer_1" xmlns="http://www.w3.org/2000/svg" xmlns:xlink="http://www.w3.org/1999/xlink" x="0px" y="0px"
	 viewBox="0 0 3840 2160" style="enable-background:new 0 0 3840 2160;" xml:space="preserve">
<style type="text/css">
	.st0{fill:#BB461A;enable-background:new    ;}
	.st1{fill:#FFFFFF;}
	.st2{fill:#3F3F8C;enable-background:new    ;}
	.st3{fill:#FFFFFF;enable-background:new    ;}
	.st4{fill:#3F3F8A;}
	.st5{fill:#3F3F89;}
</style>
<g id="Layer_2">
	<polygon class="st0" points="1648.62,1867.04 1648.62,661.46 2982.52,661.46 2982.52,299.69 660.52,299.69 660.52,643.08 
		1217.61,643.08 1217.61,1868.03 	"/>
	<path class="st1" d="M2915.91,328.41l-2121.41-3.7c-6.11-0.01-11.07,4.92-11.09,11.03l-0.91,229.92
		c-0.02,6.18,5.02,11.19,11.21,11.11l532.89-0.7c0,0,8.1-1.04,8.1,8.43c0,8.93,1.09,1058.91-0.27,1179.42
		c-0.07,6.18,4.93,11.21,11.11,11.19l223.59-0.82c6.14-0.02,11.09-5.04,11.03-11.18l0.41-1175.93c-0.06-6.13,4.87-11.14,11-11.18
		l1324.03-0.02c6.03-0.04,10.92-4.88,11-10.91l0.35-225.43C2927.05,333.48,2922.08,328.42,2915.91,328.41z"/>
	<polygon class="st2" points="1680.05,1868.03 1869.36,707.49 2223.99,707.49 2420.05,1868.03 2111.61,1868.03 2074.37,1656.47 
		2022.17,1656 1989.2,1868.02 	"/>
	<polygon class="st3" points="1979.54,778.62 2180.86,778.62 2359.5,1794.95 2214.43,1794.95 2165.32,1570.24 1979.95,1570.24 
		1941.42,1794.95 1811.57,1794.95 	"/>
	<polygon class="st4" points="2059.53,912.66 2098.68,912.66 2169.93,1429.04 1999.4,1429.04 	"/>
	<path class="st5" d="M3114.28,1145.19h-333.89V989.74c0,0,0.36-20.77-18.98-20.06s-22.45,20.54-22.45,20.54v582.46
		c0,0,1.13,18.09,22.98,17.73s20.42-17.91,20.42-17.91v-203.69h331.81v216.22c0,0,3.98,307.5-372.11,280.99
		c-142.56-10.05-278.28-47.55-305.17-262.37V995.71c0,0-27.85-278,322.35-288.93c197.12-6.16,341.88,115.76,355.02,253.78
		C3115.13,1042.49,3113.37,1068.36,3114.28,1145.19z"/>
	<path class="st1" d="M3067.96,1087.88h-204.94c0,0,0.13-55.08,0.13-105.58c0-52.07-31.18-81.53-84.13-84.63
		c-104.22-6.12-95.21,107.11-95.21,107.11v595.54c0,0,8.59,66.98,91.69,69.73c100.91,3.33,105.07-87.4,105.07-87.4v-157.12h183.63
		c0,0,60.17,400.92-272.93,386.6c0,0-244.16,14.73-274.28-198.43V993.32c0,0,8.14-229.04,274.99-227.09
		C3007.22,767.81,3070.81,910.56,3067.96,1087.88z"/>
</g>
</svg>
